{"title":"Intruder (1989) BDRip x264 AC3-FWOLF","uid":11660464,"size":1202552927,"categoryP":"video","categoryS":"movies","magnet":"?xt=urn:btih:9db3367ef285a2dd0313230a3c51c4ff1881cd20&amp;dn=Intruder+%281989%29+BDRip+x264+AC3-FWOLF&amp;tr=udp%3A%2F%2Ftracker.openbittorrent.com%3A80&amp;tr=udp%3A%2F%2Fopen.demonii.com%3A1337&amp;tr=udp%3A%2F%2Ftracker.coppersurfer.tk%3A6969&amp;tr=udp%3A%2F%2Fexodus.desync.com%3A6969","seeders":0,"leechers":0,"uploader":"TvTeam","files":6,"time":1417990634,"description":" &lt;a href=&quot;https://www.torrenting.com&quot; rel=&quot;nofollow&quot; target=&quot;_NEW&quot;&gt;https://www.torrenting.com&lt;/a&gt;\n\nSign up is OPEN - for time being. Come and have fun.Intruder (1989) BDRip x264 AC3-FWOLF\n\nimdb.... &lt;a href=&quot;\nhttp://www.imdb.com/title/tt0095379/&quot; rel=&quot;nofollow&quot; target=&quot;_NEW&quot;&gt;\nhttp://www.imdb.com/title/tt0095379/&lt;/a&gt;\n\n\nThe overnight stock crew of a local supermarket \nfind themselves being stalked and slashed by \na mysterious maniac.\n\n\n\nDirector: Scott Spiegel\n\nWriters:  Lawrence Bender (story), Scott Spiegel \n\n   \nStars:    Elizabeth Cox, Renee Estevez, Dan Hicks\n\n\nFormat                                   : AVI\nFormat/Info                              : Audio Video Interleave\nFile size                                : 1.10 GiB\nDuration                                 : 1h 27mn\nOverall bit rate                         : 1 798 Kbps\n\nVideo\nID                                       : 0\nFormat                                   : MPEG-4 Visual\nFormat profile                           : Advanced Simple@L5\nFormat settings, BVOP                    : 2\nFormat settings, QPel                    : Yes\nFormat settings, GMC                     : No warppoints\nFormat settings, Matrix                  : Default (H.263)\nCodec ID                                 : XVID\nCodec ID/Hint                            : XviD\nDuration                                 : 1h 27mn\nBit rate                                 : 1 599 Kbps\nWidth                                    : 720 pixels\nHeight                                   : 384 pixels\nDisplay aspect ratio                     : 1.85:1\nFrame rate                               : 23.976 fps\nColor space                              : YUV\nChroma subsampling                       : 4:2:0\nBit depth                                : 8 bits\nScan type                                : Progressive\nCompression mode                         : Lossy\nBits/(Pixel*Frame)                       : 0.241\nStream size                              : 1 002 MiB (89%)\nWriting library                          : XviD 1.2.1 (UTC 2008-12-04)\n\nAudio\nID                                       : 1\nFormat                                   : AC-3\nFormat/Info                              : Audio Coding 3\nMode extension                           : CM (complete main)\nFormat settings, Endianness              : Big\nCodec ID                                 : 2000\nDuration                                 : 1h 27mn\nBit rate mode                            : Constant\nBit rate                                 : 192 Kbps\nChannel(s)                               : 2 channels\nChannel positions                        : Front: L R\nSampling rate                            : 48.0 KHz\nBit depth                                : 16 bits\nCompression mode                         : Lossy\nStream size                              : 120 MiB (11%)\nAlignment                                : Aligned on interleaves\nInterleave, duration                     : 64 ms (1.53 video frames)\nInterleave, preload duration             : 192 ms\nTitle                                    : English\n\n\n\n\n\nEncoded....................FWOLF              \n\nSource.....................BDremux 18.81 GB (Thanks!)\n\nSample.....................Yes\n\nSubs.......................(srt)No\n\n\n\n\n\n[img]http://s10.postimg.org/debuweihl/image.png[/img]\n\n\n\n\n[img]http://s28.postimg.org/gyc7wy4z1/image.png[/img]\n\n\n\n\n[img]http://s3.postimg.org/cuofy4bw3/image.png[/img]\n\n\n\n\nGreetz To: PsiX | Blacksheep | CFR | tomcat-12...\n.....and all P2P Encoders and Groups","torrent":{"xt":"urn:btih:9db3367ef285a2dd0313230a3c51c4ff1881cd20","amp;dn":"Intruder+%281989%29+BDRip+x264+AC3-FWOLF","amp;tr":["udp%3A%2F%2Ftracker.openbittorrent.com%3A80","udp%3A%2F%2Fopen.demonii.com%3A1337","udp%3A%2F%2Ftracker.coppersurfer.tk%3A6969","udp%3A%2F%2Fexodus.desync.com%3A6969"],"infoHash":"9db3367ef285a2dd0313230a3c51c4ff1881cd20","infoHashBuffer":{"type":"Buffer","data":[157,179,54,126,242,133,162,221,3,19,35,10,60,81,196,255,24,129,205,32]},"announce":[],"urlList":[]}}